<?xml version="1.0" encoding="UTF-8" standalone="no"?>
<!-- Created with Inkscape (http://www.inkscape.org/) -->
<svg xmlns="http://www.w3.org/2000/svg" xmlns:svg="http://www.w3.org/2000/svg" width="99.999657mm" height="30.373234mm" viewBox="0 0 99.999657 30.373234" version="1.1" id="svg12" xml:space="preserve">
  <defs id="defs9"></defs>
  <g id="layer1" transform="translate(-45.257836,-54.096575)">
    <path class="st0" d="m 138.27379,59.219774 c -1.66981,0 -3.28704,0.599889 -4.55335,1.688058 -1.26631,1.088168 -2.10122,2.597014 -2.35234,4.248586 l -2.06366,13.591386 c -0.0558,0.369159 -0.36809,0.637446 -0.74154,0.637446 -0.37346,0 -0.68574,-0.268287 -0.74154,-0.637446 L 125.7577,65.156418 c -0.25112,-1.650502 -1.08603,-3.159343 -2.35234,-4.247513 -1.26631,-1.088169 -2.88354,-1.688057 -4.55335,-1.688057 0,0 0,0 0,0 -1.8662,0 -3.62079,0.727592 -4.94076,2.047561 -1.31997,1.319967 -2.04542,3.075636 -2.04435,4.942909 l 0.01,13.176078 h -4.10697 V 66.24888 h -0.002 c -0.0504,-3.884788 -3.22373,-7.029106 -7.12032,-7.029106 H 76.296538 v -5.123196 h -5.083607 v 5.123196 H 52.175333 c -3.81396,0 -6.917496,3.103535 -6.917496,6.917498 0,3.415823 2.447845,6.28756 5.819668,6.829496 l 10.323659,1.659084 c 1.167582,0.1878 2.014294,1.18153 2.014294,2.364137 0,1.319971 -1.074218,2.39419 -2.394187,2.39419 H 45.502514 v 5.08456 h 15.518757 c 4.124098,0 7.478751,-3.354651 7.478751,-7.47875 0,-3.692691 -2.646377,-6.798373 -6.291853,-7.384312 L 51.88451,67.946593 c -0.89393,-0.143801 -1.54211,-0.904658 -1.54211,-1.810396 0,-1.010901 0.82203,-1.832931 1.832933,-1.832931 h 19.037598 v 15.326661 c 0,2.667839 2.170977,4.838812 4.838816,4.838812 h 7.92196 v -5.08456 H 76.296425 V 64.304337 h 24.347525 c 1.12358,0 2.03898,0.914324 2.03898,2.038979 0,0.898222 -0.64389,1.654788 -1.53139,1.798593 l -9.030511,1.461622 c -3.642257,0.589156 -6.285415,3.695913 -6.285415,7.385388 0,4.125169 3.355725,7.480895 7.480896,7.480895 h 9.36534 2.54228 6.89496 c 1.29314,0 2.50902,-0.503307 3.42226,-1.418698 0.91432,-0.91432 1.41655,-2.131269 1.41548,-3.424409 l -0.01,-13.420755 c 0,-0.507598 0.19747,-0.985146 0.5559,-1.344652 0.35842,-0.359502 0.83598,-0.556963 1.34465,-0.556963 v 0 c 0.94651,0 1.73635,0.679304 1.87908,1.615088 l 2.06366,13.591382 c 0.20926,1.378994 0.90787,2.638867 1.96492,3.548896 1.05812,0.908954 2.40814,1.410111 3.80323,1.410111 1.39509,0 2.74511,-0.501157 3.80323,-1.410111 1.05812,-0.908958 1.75567,-2.169902 1.96493,-3.548896 l 2.06366,-13.591382 c 0.14273,-0.935784 0.93256,-1.615088 1.88229,-1.615088 1.04847,0 1.90054,0.853151 1.90054,1.900544 v 18.20269 h 5.08457 v -18.20269 c 0.004,-3.851521 -3.1293,-6.985107 -6.98403,-6.985107 z M 93.317585,79.38525 c -1.322117,0 -2.397407,-1.07529 -2.397407,-2.397406 0,-1.182607 0.846711,-2.177412 2.014295,-2.366283 l 9.030517,-1.461626 c 0.24468,-0.03971 0.48399,-0.09336 0.71794,-0.156679 v 6.381994 z" id="path59" style="stroke-width:0.107314"></path>
  </g>
  <style type="text/css" id="style57">
	.st0{fill:#333333;}
</style>
</svg>
